# xmcd
#
# Track frame offsets:
#	150
#	13215
#	29605
#	44495
#	58575
#	68232
#	76930
#	87285
#	93008
#	105020
#	115935
#	126050
#	137155
#	149025
#
# Disc length: 2119
#
# Revision: 1
# Processed by: cddbd v1.5.1PL0 Copyright (c) Steve Scherf et al.
# Submitted via: dBpowerAMP V4.0
# Normalized: r0:TDELIM( - )
#
DISCID=bc08450e
DTITLE=Various Artist - This is Country
DYEAR=1900
DGENRE=
TTITLE0=Glenn Campbell - Galveston (live)
TTITLE1=Tammy Wynette - You and Me (live)
TTITLE2=Johny Cash - The Ballad Of Ira Hayes
TTITLE3=Don Williams - Come Early  Morning
TTITLE4=Norma Jean - Go Cat Go
TTITLE5=Waylon Jennings - Love's Gonna Live Here
TTITLE6=Patsy Cline - Three Cigarettes In An Ashtrey
TTITLE7=Buck Owens - Blue Love
TTITLE8=David Houston - Mountain Of Love
TTITLE9=Dolly Parton - The  Little Things
TTITLE10=Bobby Bare - Help Me Make It Through The Night
TTITLE11=Kitty Wells - Heartbreak U.S.A
TTITLE12=Melba Montgomery and Stan Hitchcock - We Must Have Been Out
TTITLE13=Willie Nelson - On The Road Again (live)
EXTD=
EXTT0=
EXTT1=
EXTT2=
EXTT3=
EXTT4=
EXTT5=
EXTT6=
EXTT7=
EXTT8=
EXTT9=
EXTT10=
EXTT11=
EXTT12=
EXTT13=
PLAYORDER=
